<svg xmlns="http://www.w3.org/2000/svg" xmlns:xlink="http://www.w3.org/1999/xlink" width="43" height="36.749" viewBox="0 0 43 36.749">
  <defs>
    <filter id="card_1" x="0" y="0" width="43" height="36.749" filterUnits="userSpaceOnUse">
      <feOffset dy="3" input="SourceAlpha"/>
      <feGaussianBlur stdDeviation="3" result="blur"/>
      <feFlood flood-opacity="0.161"/>
      <feComposite operator="in" in2="blur"/>
      <feComposite in="SourceGraphic"/>
    </filter>
  </defs>
  <g transform="matrix(1, 0, 0, 1, 0, 0)" filter="url(#card_1)">
    <path id="card_1-2" data-name="card_1" d="M3.125,18.749A3.134,3.134,0,0,1,0,15.625V3.125A3.134,3.134,0,0,1,3.125,0H21.875A3.134,3.134,0,0,1,25,3.125v12.5a3.134,3.134,0,0,1-3.125,3.125Zm0-3.125H21.875V9.375H3.125Zm0-9.374H21.875V3.125H3.125Zm6.251,7.812H7.813a1.562,1.562,0,1,1,0-3.125h3.125a1.562,1.562,0,0,1,0,3.125Z" transform="translate(9 6)" fill="#fff"/>
  </g>
</svg>
