<svg xmlns="http://www.w3.org/2000/svg" width="163.351" height="141.35" viewBox="0 0 163.351 141.35">
  <g id="Group_660" data-name="Group 660" transform="matrix(0.995, 0.105, -0.105, 0.995, 6310.433, -7856.669)">
    <g id="Group_639" data-name="Group 639" transform="translate(-5441.493 8471.869)">
      <path id="Union_129" data-name="Union 129" d="M80.97,123.071c-2.641-1.884-6.34-4.676-9.7-7.558s-6.78-6.136-9.3-8.437l-4.03-4.058c-3.235-3.343-4.909-5.108-5.15-9.135A82.3,82.3,0,0,1,56.15,71.5s1.283,1.975,3.357,4.7c2.041,2.857,4.881,6.425,7.727,9.994,5.876,7.024,12.159,13.166,12.159,13.166,3.278,3.19,4.878,4.61,5.479,7.908s.2,8.493.527,18.988C85.4,126.26,83.613,124.956,80.97,123.071Zm5.954,3.1a53.919,53.919,0,0,1,1.208-18.688c1.17-3.152,3.147-4.274,6.8-6.267,0,0,7.691-4.051,15.329-7.292,3.889-1.592,7.754-3.038,10.667-4.068s4.86-1.5,4.86-1.5a96.284,96.284,0,0,1-3.775,14.678c-1.319,2.453-3,3.158-6.668,5.141,0,0-1.906.99-4.605,2.4s-6.209,3.452-9.97,5.762A99.879,99.879,0,0,0,91.221,123c-2.47,1.839-4.3,3.178-4.3,3.178ZM53.7,119.734a60.979,60.979,0,0,0-6.575-2.392c-2.539-.765-4.884-1.376-6.667-1.786s-3.04-.677-3.04-.677c-2.433-.581-3.514-.733-4.663-1.95a57.5,57.5,0,0,1-4.466-7.939s1.2-.028,3.053.118,4.311.384,6.813.707c4.93.691,9.995,1.851,9.995,1.851,2.434.581,3.741.932,4.912,2.575a32.411,32.411,0,0,1,3.6,10.628S55.409,120.4,53.7,119.734Zm1.238-10.1a5.8,5.8,0,0,1,1.132-4.8s2.562,2.61,8.477,7.987c-2.173,3-3.637,3.865-4.876,5.354s-2.076,2.528-2.076,2.528C56.132,114.579,55.1,111.639,54.934,109.634Zm-6.722-6.289,0,0c-1.926-.434-4.468-.847-6.974-1.168a83.564,83.564,0,0,0-9.984-.864c-2.493-.105-3.619-.142-4.952-1.117a8.246,8.246,0,0,1-2.159-2.4c-.808-1.208-1.908-2.542-3.354-4.468a27.973,27.973,0,0,1,2.976-.391c1.746-.233,4.174-.424,6.737-.575,4.958-.214,10.114.124,10.114.124,2.549.2,3.832.326,5.2,1.745a15.233,15.233,0,0,1,2.257,3.339c.825,1.622,1.888,3.657,3.09,6.5C51.163,104.058,49.909,103.8,48.213,103.345Zm.742-6.174,0,0a24.8,24.8,0,0,1-1.512-3.769c-.469-1.961.071-3.132,1.029-5.678.936-2.3,3.667-11.208,4.24-13.624-.92,4.351-2.957,14.379-2.688,18.819,0,3.764,2.908,8.31,3.226,8.6-.962,1.772-1.24,2.271-1.24,2.271C50.765,100.878,49.7,98.842,48.955,97.171Zm39.569-.46h0Zm.033-.013V96.7l-.028.005Zm2.163-11.8a25.388,25.388,0,0,1,2.2-6.348c1.617-2.863,3.619-3.646,7.631-5.048,0,0,8.161-2.769,16.233-4.566,4.2-.876,8.194-1.6,11.1-1.979a47.566,47.566,0,0,1,4.972-.667c-1.5,3.743-2.71,6.372-3.474,8.643a13.636,13.636,0,0,1-2.44,4.773c-1.747,2.2-3.533,2.709-7.5,3.958a138.774,138.774,0,0,0-15.712,5.688c-3.872,1.6-7.826,3.348-10.721,4.89-2.381,1.389-4.2,2.337-4.45,2.452C89.263,91.6,90.1,87.866,90.719,84.9ZM87.074,96.607c-.061-.061-1.618-1.622-3.877-4.007-2.3-2.433-5.241-5.7-8.126-9.117A166.111,166.111,0,0,1,64.1,68.985c-2.607-3.841-4.037-5.876-3.621-9.89a78.889,78.889,0,0,1,7.179-21.849s.911,2.2,2.5,5.457,3.664,7.286,5.877,11.347c4.622,8.008,9.8,15.175,9.8,15.175,2.638,3.709,4,5.371,4.106,8.7a41.2,41.2,0,0,1-.8,6.723c-.493,3.011-1.323,6.745-2.063,11.959l.006.007-.008.012ZM17.3,89.02a10.47,10.47,0,0,1-2.334-1.743c-.929-.652-2.12-1.95-3.728-3.014,0,0,1-.575,2.667-1.316,1.631-.613,3.847-1.558,6.207-2.256a56.182,56.182,0,0,1,6.681-1.626c1.776-.363,3.1-.572,3.1-.572,2.522-.463,3.791-.515,5.438.615a31.739,31.739,0,0,1,7.074,8.62,79.421,79.421,0,0,0-10.334.085l.007,0a66.33,66.33,0,0,0-6.821.624c-1.781.365-3.018.521-3.018.521A22.374,22.374,0,0,1,19,89.4,3.739,3.739,0,0,1,17.3,89.02ZM36.91,77.836l0,0c-.839-1.837-.488-3.144-.132-5.776,0,0,.135-1.294.4-3.324a72.013,72.013,0,0,0,.488-7.572c-.038-2.741-.171-5.648-.345-7.864-.259-2.17-.563-3.652-.563-3.652,1.841,1.258,3.072,2.422,4.407,3.419,1.264,1.039,2.224,1.919,3.121,2.73a27.619,27.619,0,0,1,3.279,3.959,8.022,8.022,0,0,1,.812,6.382s-.17,1.426-.517,3.5-.868,4.808-1.569,7.422a86.413,86.413,0,0,1-3.071,10.141C39.775,82.034,37.748,79.673,36.91,77.836ZM21.052,72.748A24.717,24.717,0,0,1,18.3,69.7a44.63,44.63,0,0,0-6.982-6.352,30.108,30.108,0,0,0-5.3-3.241A49.1,49.1,0,0,0,0,57.721a46.093,46.093,0,0,1,17.824.645A39.2,39.2,0,0,1,26.7,61.306a10.5,10.5,0,0,1,5.432,4.82c1.091,2.46.154,5.434-.037,7.976a52.6,52.6,0,0,1-7.344.48l.007,0A6.323,6.323,0,0,1,21.052,72.748Zm82.28-23.112c2.185-2.55,4.268-2.983,8.494-3.336,0,0,2.21-.233,5.229-.409a92.186,92.186,0,0,1,11.462-.229c4.1.1,8.078.664,10.976.94,3.008.482,4.856.978,4.856.978-2.136,2.369-3.506,4.979-4.707,6.473a17.743,17.743,0,0,1-3.022,3.807c-1.9,1.637-3.894,1.592-7.963,1.992,0,0-2.074.27-5.08.449a110.892,110.892,0,0,0-11.25,1.942l0,.044a132.742,132.742,0,0,0-16.662,4.3A52.911,52.911,0,0,1,103.332,49.636ZM94.087,66.142a144.243,144.243,0,0,1-9.3-15.039c-2.273-3.912-4.269-8.074-5.727-11.273s-2.35-5.416-2.35-5.416a13.393,13.393,0,0,1-1.444-10.629,45.957,45.957,0,0,1,3.6-7.806c1.14-1.7,2.264-3.52,3.85-5.737,1.739-2.175,3.229-4.583,5.618-7.414,0,0,.15,2.542.663,6.151.678,3.649,1.72,8.385,2.843,12.814a119.4,119.4,0,0,0,4.046,11.981c1.305,3.156,2.083,5.181,2.083,5.181,1.709,4.09,2.841,6.046,2.277,9.362s-2.85,7.995-6.152,17.826c.008.011.016.021.023.032l-.039.015Zm8.768-38.756a17.481,17.481,0,0,1,6.67-10.1,65.122,65.122,0,0,1,13.031-8.563A76.764,76.764,0,0,1,150.98,0a81.209,81.209,0,0,0-8.645,6.437,49.572,49.572,0,0,0-7.129,7.465,74.351,74.351,0,0,0-8.5,13.23,41.743,41.743,0,0,1-3.135,6.093,10.565,10.565,0,0,1-5.19,4.577v.02a88.857,88.857,0,0,1-12.028,2.388C104.931,36.192,102.161,31.817,102.855,27.385Z" transform="translate(0 0)" fill="#fff"/>
    </g>
  </g>
</svg>
