<svg id="Group_639" data-name="Group 639" xmlns="http://www.w3.org/2000/svg" width="40.98" height="34.27" viewBox="0 0 40.98 34.27">
  <path id="Union_129" data-name="Union 129" d="M21.978,33.4c-.717-.511-1.721-1.269-2.633-2.051s-1.84-1.666-2.524-2.29l-1.094-1.1a3.517,3.517,0,0,1-1.4-2.479,22.339,22.339,0,0,1,.912-6.075s.348.536.911,1.277c.554.775,1.325,1.744,2.1,2.713,1.595,1.907,3.3,3.574,3.3,3.574.89.866,1.324,1.251,1.487,2.146s.054,2.305.143,5.154C23.179,34.27,22.695,33.916,21.978,33.4Zm1.616.841a14.635,14.635,0,0,1,.328-5.072c.318-.856.854-1.16,1.845-1.7,0,0,2.087-1.1,4.161-1.979,1.056-.432,2.1-.825,2.9-1.1s1.319-.408,1.319-.408a26.135,26.135,0,0,1-1.025,3.984c-.358.666-.814.857-1.81,1.4,0,0-.517.269-1.25.652s-1.685.937-2.706,1.564a27.11,27.11,0,0,0-2.591,1.809c-.67.5-1.168.863-1.168.863ZM14.575,32.5a16.552,16.552,0,0,0-1.785-.649c-.689-.208-1.326-.374-1.81-.485s-.825-.184-.825-.184c-.66-.158-.954-.2-1.266-.529A15.606,15.606,0,0,1,7.678,28.5s.326-.008.829.032,1.17.1,1.849.192c1.338.188,2.713.5,2.713.5.661.158,1.015.253,1.333.7a8.8,8.8,0,0,1,.977,2.885S15.04,32.68,14.575,32.5Zm.336-2.741a1.574,1.574,0,0,1,.307-1.3s.7.709,2.3,2.168A14.052,14.052,0,0,1,16.2,32.075c-.336.4-.564.686-.564.686C15.236,31.1,14.955,30.3,14.911,29.758Zm-1.824-1.707h0c-.523-.118-1.213-.23-1.893-.317a22.683,22.683,0,0,0-2.71-.235,2.129,2.129,0,0,1-1.344-.3,2.238,2.238,0,0,1-.586-.651c-.219-.328-.518-.69-.91-1.213a7.593,7.593,0,0,1,.808-.106c.474-.063,1.133-.115,1.829-.156,1.346-.058,2.745.034,2.745.034.692.055,1.04.089,1.412.474a4.134,4.134,0,0,1,.613.906c.224.44.513.993.839,1.764C13.887,28.244,13.547,28.174,13.086,28.051Zm.2-1.676h0a6.73,6.73,0,0,1-.41-1.023,2.358,2.358,0,0,1,.279-1.541c.254-.624,1-3.042,1.151-3.7a27.538,27.538,0,0,0-.73,5.108,4.8,4.8,0,0,0,.875,2.335c-.261.481-.337.617-.337.617C13.779,27.381,13.491,26.829,13.288,26.375Zm10.74-.125h0Zm.009,0v0h-.008Zm.587-3.2a6.891,6.891,0,0,1,.6-1.723c.439-.777.982-.99,2.071-1.37,0,0,2.215-.751,4.406-1.239,1.139-.238,2.224-.434,3.012-.537a12.91,12.91,0,0,1,1.349-.181c-.408,1.016-.736,1.73-.943,2.346a3.7,3.7,0,0,1-.662,1.3c-.474.6-.959.735-2.036,1.074a37.666,37.666,0,0,0-4.265,1.544c-1.051.435-2.124.909-2.91,1.327-.646.377-1.14.634-1.208.666C24.228,24.863,24.456,23.849,24.624,23.045Zm-.99,3.177c-.017-.017-.439-.44-1.052-1.087s-1.422-1.547-2.206-2.475A45.087,45.087,0,0,1,17.4,18.724c-.708-1.043-1.1-1.595-.983-2.685a21.413,21.413,0,0,1,1.949-5.93s.247.6.678,1.481.994,1.978,1.6,3.08c1.254,2.174,2.66,4.119,2.66,4.119.716,1.007,1.086,1.458,1.114,2.362a11.184,11.184,0,0,1-.218,1.825c-.134.817-.359,1.831-.56,3.246l0,0,0,0ZM4.695,24.163a2.842,2.842,0,0,1-.633-.473c-.252-.177-.576-.529-1.012-.818,0,0,.27-.156.724-.357.443-.166,1.044-.423,1.685-.612a15.249,15.249,0,0,1,1.814-.441c.482-.1.84-.155.84-.155a1.684,1.684,0,0,1,1.476.167,8.615,8.615,0,0,1,1.92,2.34,21.557,21.557,0,0,0-2.8.023h0A18,18,0,0,0,6.854,24c-.483.1-.819.141-.819.141a6.073,6.073,0,0,1-.877.12A1.015,1.015,0,0,1,4.695,24.163Zm5.324-3.036h0a2.53,2.53,0,0,1-.036-1.568s.037-.351.109-.9a19.546,19.546,0,0,0,.132-2.055c-.01-.744-.047-1.533-.094-2.135-.07-.589-.153-.991-.153-.991.5.341.834.658,1.2.928.343.282.6.521.847.741a7.5,7.5,0,0,1,.89,1.075,2.177,2.177,0,0,1,.22,1.732s-.046.387-.14.95-.236,1.305-.426,2.015a23.455,23.455,0,0,1-.833,2.753C10.8,22.266,10.246,21.625,10.018,21.127Zm-4.3-1.381a6.708,6.708,0,0,1-.748-.828,12.114,12.114,0,0,0-1.9-1.724,8.172,8.172,0,0,0-1.438-.88A13.325,13.325,0,0,0,0,15.667a12.511,12.511,0,0,1,4.838.175,10.64,10.64,0,0,1,2.41.8,2.851,2.851,0,0,1,1.474,1.308,4.558,4.558,0,0,1-.01,2.165,14.278,14.278,0,0,1-1.993.13h0A1.716,1.716,0,0,1,5.714,19.746Zm22.333-6.273a2.822,2.822,0,0,1,2.305-.905s.6-.063,1.419-.111a25.021,25.021,0,0,1,3.111-.062c1.113.027,2.193.18,2.979.255.817.131,1.318.265,1.318.265-.58.643-.952,1.351-1.278,1.757a4.816,4.816,0,0,1-.82,1.033c-.516.444-1.057.432-2.161.541,0,0-.563.073-1.379.122a30.1,30.1,0,0,0-3.054.527v.012a36.03,36.03,0,0,0-4.522,1.168A14.362,14.362,0,0,1,28.047,13.472Zm-2.509,4.48a39.152,39.152,0,0,1-2.525-4.082c-.617-1.062-1.159-2.192-1.555-3.06s-.638-1.47-.638-1.47a3.635,3.635,0,0,1-.392-2.885A12.474,12.474,0,0,1,21.4,4.337c.309-.46.615-.955,1.045-1.557.472-.59.877-1.244,1.525-2.012,0,0,.041.69.18,1.67.184.99.467,2.276.772,3.478a32.408,32.408,0,0,0,1.1,3.252c.354.857.566,1.406.566,1.406a4.211,4.211,0,0,1,.618,2.541c-.153.9-.774,2.17-1.67,4.838l.006.009-.011,0Zm2.38-10.52a4.745,4.745,0,0,1,1.81-2.741,17.676,17.676,0,0,1,3.537-2.324A20.836,20.836,0,0,1,40.98,0a22.042,22.042,0,0,0-2.346,1.747A13.456,13.456,0,0,0,36.7,3.773a20.181,20.181,0,0,0-2.307,3.591,11.331,11.331,0,0,1-.851,1.654,2.868,2.868,0,0,1-1.409,1.242v.005a24.119,24.119,0,0,1-3.265.648C28.481,9.823,27.729,8.636,27.918,7.433Z" transform="translate(0 0)" fill="#fff"/>
</svg>
