<svg xmlns="http://www.w3.org/2000/svg" xmlns:xlink="http://www.w3.org/1999/xlink" width="43" height="43" viewBox="0 0 43 43">
  <defs>
    <filter id="home_4_2" x="0" y="0" width="43" height="43" filterUnits="userSpaceOnUse">
      <feOffset dy="3" input="SourceAlpha"/>
      <feGaussianBlur stdDeviation="3" result="blur"/>
      <feFlood flood-opacity="0.161"/>
      <feComposite operator="in" in2="blur"/>
      <feComposite in="SourceGraphic"/>
    </filter>
  </defs>
  <g transform="matrix(1, 0, 0, 1, 0, 0)" filter="url(#home_4_2)">
    <path id="home_4_2-2" data-name="home_4_2" d="M23.608,6.775,14.233.525a3.122,3.122,0,0,0-3.466,0L1.392,6.775A3.122,3.122,0,0,0,0,9.375v12.5A3.124,3.124,0,0,0,3.125,25h18.75A3.124,3.124,0,0,0,25,21.875V9.375A3.122,3.122,0,0,0,23.608,6.775Zm-1.733,15.1H17.188V14.063H7.813v7.813H3.125V9.375L12.5,3.125l9.375,6.25Z" transform="translate(9 6)" fill="#fff"/>
  </g>
</svg>
