<svg xmlns="http://www.w3.org/2000/svg" xmlns:xlink="http://www.w3.org/1999/xlink" width="43" height="43.28" viewBox="0 0 43 43.28">
  <defs>
    <filter id="layers_2" x="0" y="0" width="43" height="43.28" filterUnits="userSpaceOnUse">
      <feOffset dy="3" input="SourceAlpha"/>
      <feGaussianBlur stdDeviation="3" result="blur"/>
      <feFlood flood-opacity="0.161"/>
      <feComposite operator="in" in2="blur"/>
      <feComposite in="SourceGraphic"/>
    </filter>
  </defs>
  <g transform="matrix(1, 0, 0, 1, 0, 0)" filter="url(#layers_2)">
    <path id="layers_2-2" data-name="layers_2" d="M6.25,25.28a3.128,3.128,0,0,1-2.965-2.161L.16,13.639a3.186,3.186,0,0,1,.431-2.847A3.111,3.111,0,0,1,3.125,9.48H21.876a3.115,3.115,0,0,1,2.534,1.313,3.19,3.19,0,0,1,.429,2.847l-3.125,9.479a3.127,3.127,0,0,1-2.963,2.161Zm0-3.16h12.5l3.125-9.48H3.125ZM4.688,7.9a1.58,1.58,0,0,1,0-3.16H20.314a1.58,1.58,0,0,1,0,3.16Zm3.125-4.74A1.572,1.572,0,0,1,6.25,1.581,1.572,1.572,0,0,1,7.813,0h9.375a1.572,1.572,0,0,1,1.563,1.581,1.572,1.572,0,0,1-1.563,1.58Z" transform="translate(9 6)" fill="#fff"/>
  </g>
</svg>
