<svg xmlns="http://www.w3.org/2000/svg" xmlns:xlink="http://www.w3.org/1999/xlink" width="43" height="43" viewBox="0 0 43 43">
  <defs>
    <filter id="message_open_2" x="0" y="0" width="43" height="43" filterUnits="userSpaceOnUse">
      <feOffset dy="3" input="SourceAlpha"/>
      <feGaussianBlur stdDeviation="3" result="blur"/>
      <feFlood flood-opacity="0.161"/>
      <feComposite operator="in" in2="blur"/>
      <feComposite in="SourceGraphic"/>
    </filter>
  </defs>
  <g transform="matrix(1, 0, 0, 1, 0, 0)" filter="url(#message_open_2)">
    <path id="message_open_2-2" data-name="message_open_2" d="M3.125,25A3.125,3.125,0,0,1,0,21.874V9.375a3.121,3.121,0,0,1,1.392-2.6L10.767.525a3.126,3.126,0,0,1,3.467,0l9.374,6.251A3.121,3.121,0,0,1,25,9.375v12.5A3.125,3.125,0,0,1,21.875,25Zm0-15.625v12.5h18.75V9.375L12.5,3.125Zm8.438,9.062L5.312,13.75a1.563,1.563,0,1,1,1.876-2.5L12.5,15.234l5.313-3.984a1.563,1.563,0,1,1,1.876,2.5l-6.251,4.687a1.563,1.563,0,0,1-1.875,0Z" transform="translate(9 6)" fill="#fff"/>
  </g>
</svg>
