<svg xmlns="http://www.w3.org/2000/svg" xmlns:xlink="http://www.w3.org/1999/xlink" width="43" height="43.109" viewBox="0 0 43 43.109">
  <defs>
    <filter id="Path_332" x="0" y="0" width="43" height="43.109" filterUnits="userSpaceOnUse">
      <feOffset dy="3" input="SourceAlpha"/>
      <feGaussianBlur stdDeviation="3" result="blur"/>
      <feFlood flood-opacity="0.161"/>
      <feComposite operator="in" in2="blur"/>
      <feComposite in="SourceGraphic"/>
    </filter>
  </defs>
  <g transform="matrix(1, 0, 0, 1, 0, 0)" filter="url(#Path_332)">
    <path id="Path_332-2" data-name="Path 332" d="M436.3,529.262a3.127,3.127,0,0,0,3.063-2.523l1.563-7.846a3.135,3.135,0,0,0-3.065-3.754H422.238v-1.569A1.567,1.567,0,0,0,420.676,512h-3.124a1.569,1.569,0,0,0,0,3.139h1.563v15.693a3.139,3.139,0,1,0,3.124,3.139h10.936a3.125,3.125,0,1,0,3.126-3.139H422.238v-1.569Zm1.561-10.985-1.561,7.846H422.238v-7.846Z" transform="translate(-406.99 -506)" fill="#fff"/>
  </g>
</svg>
