<svg xmlns="http://www.w3.org/2000/svg" width="20" height="20" viewBox="0 0 20 20">
  <path id="phone" d="M19.872,14.537l-.962,2.9a2.5,2.5,0,0,1-1.357,1.5A12.372,12.372,0,0,1,12.5,20a12.467,12.467,0,0,1-8.4-3.243c-.159-.142-.3-.285-.425-.407A11.881,11.881,0,0,1,1.8,13.979a10.094,10.094,0,0,1-.485-.9A12.243,12.243,0,0,1,0,7.5,12.358,12.358,0,0,1,1.065,2.447a2.507,2.507,0,0,1,1.5-1.357l2.9-.963A2.5,2.5,0,0,1,8.622,1.71l1.25,3.75A2.5,2.5,0,0,1,8.618,8.486l-.91.455a4.953,4.953,0,0,0,1.267,2.1,4.887,4.887,0,0,0,2.083,1.25l.455-.909a2.5,2.5,0,0,1,3.027-1.254l3.749,1.25A2.5,2.5,0,0,1,19.872,14.537ZM17.5,13.75,13.75,12.5,12.5,15A7.511,7.511,0,0,1,5,7.5L7.5,6.25,6.25,2.5l-2.9.963A9.9,9.9,0,0,0,2.5,7.5a9.8,9.8,0,0,0,1.062,4.475,7.543,7.543,0,0,0,.375.7,9.435,9.435,0,0,0,1.489,1.887c.112.112.225.225.35.338A9.975,9.975,0,0,0,12.5,17.5a9.9,9.9,0,0,0,4.037-.85Z" fill="#fff"/>
</svg>
